<?xml version="1.0" standalone="no"?>
<!DOCTYPE svg PUBLIC "-//W3C//DTD SVG 20010904//EN"
 "http://www.w3.org/TR/2001/REC-SVG-20010904/DTD/svg10.dtd">
<svg version="1.0" xmlns="http://www.w3.org/2000/svg"
 width="253.000000pt" height="253.000000pt" viewBox="0 0 253.000000 253.000000"
 preserveAspectRatio="xMidYMid meet">
<metadata>
Created by potrace 1.11, written by Peter Selinger 2001-2013
</metadata>
<g transform="translate(0.000000,253.000000) scale(0.100000,-0.100000)"
fill="#000000" stroke="none">
<path d="M1527 2254 c-3 -5 39 -8 94 -6 54 2 99 0 99 -5 0 -4 -49 -8 -109 -8
-60 0 -107 3 -104 8 19 31 -324 -54 -352 -88 -5 -6 -15 -10 -21 -8 -7 2 -18
-3 -27 -11 -8 -8 -17 -13 -20 -10 -9 9 -66 -29 -60 -39 3 -6 1 -7 -5 -3 -26
16 -230 -132 -363 -264 -104 -102 -168 -182 -243 -303 -73 -117 -151 -304
-169 -407 -3 -14 -8 -41 -11 -60 -25 -132 4 -367 51 -420 8 -8 29 -36 48 -62
55 -74 181 -157 305 -200 66 -23 210 -46 271 -43 55 3 172 16 180 21 3 2 21 6
40 9 135 23 350 122 529 244 322 219 601 607 648 900 15 94 6 252 -17 323 -39
117 -135 239 -242 309 -24 15 -53 35 -64 44 l-20 16 20 -6 c15 -5 17 -3 9 5
-15 15 -194 60 -194 49 0 -5 5 -9 12 -9 6 0 8 -3 5 -7 -4 -3 -16 2 -27 12 -17
16 -42 20 -139 23 -65 2 -121 0 -124 -4z m-44 -21 c-7 -2 -19 -2 -25 0 -7 3
-2 5 12 5 14 0 19 -2 13 -5z m290 0 c-7 -2 -21 -2 -30 0 -10 3 -4 5 12 5 17 0
24 -2 18 -5z m-333 -7 c0 -2 -13 -6 -29 -8 -17 -2 -28 -1 -25 4 5 8 54 12 54
4z m447 -12 c-3 -3 -12 -4 -19 -1 -8 3 -5 6 6 6 11 1 17 -2 13 -5z m-572 -14
c-3 -5 -12 -10 -18 -10 -7 0 -6 4 3 10 19 12 23 12 15 0z m612 4 c-3 -3 -12
-4 -19 -1 -8 3 -5 6 6 6 11 1 17 -2 13 -5z"/>
</g>
</svg>
